<svg xmlns="http://www.w3.org/2000/svg" viewBox="0 0 120 32" fill="currentColor" aria-hidden="true">
  <path d="M38.2 13.6H23.9v5h12.5c-.5 2.9-3.2 5-6.4 5-3.9 0-7.1-3.2-7.1-7.1s3.2-7.1 7.1-7.1c1.8 0 3.4.7 4.6 1.8l3.8-3.8C31.2 4.4 28 3 24.5 3 14.8 3 7 10.8 7 20.5S14.8 38 24.5 38c8.8 0 14.5-6.2 14.5-15 0-1-.1-2-.3-2.9zM68 10.2V3h-6.8v7.2H68zm0 22.3V14.5h-6.8v18H68zm18.5-11.2c0-4.2 2.4-6.4 5.8-6.4 3.1 0 4.7 1.8 5.2 4.3l6.3-1c-.9-5.5-5.4-9.2-11.6-9.2-7.5 0-12.8 5.2-12.8 13.1 0 7.9 5.3 13.1 12.6 13.1 6.4 0 10.8-3.8 11.5-9.2l-6.2-1.1c-.6 2.5-2.5 4.1-5.3 4.1-3.4 0-5.8-2.3-5.8-6.7z"/>
</svg>
