<svg id="icon" xmlns="http://www.w3.org/2000/svg" viewBox="0 0 512 512"><title>growth graph</title><path d="M429.1,30.19a5.59,5.59,0,0,0-9.59,0l-55.34,92.75a5.58,5.58,0,0,0,4.8,8.44h24.86v31a5.59,5.59,0,0,0,11.17,0V125.8a5.58,5.58,0,0,0-5.58-5.59H378.8L424.3,44l45.5,76.26H449.19a5.59,5.59,0,0,0-5.59,5.59V473.36H405v-246a5.59,5.59,0,0,0-11.17,0V479a5.58,5.58,0,0,0,5.59,5.58h49.77a5.58,5.58,0,0,0,5.58-5.58V131.38h24.86a5.58,5.58,0,0,0,4.8-8.44Z"/><path d="M399.42,200.8a5.58,5.58,0,0,0,5.58-5.58v-2a5.59,5.59,0,0,0-11.17,0v2A5.58,5.58,0,0,0,399.42,200.8Z"/><path d="M204.49,343.75H154.72a5.58,5.58,0,0,0-5.59,5.58V478.94a5.59,5.59,0,0,0,5.59,5.59h49.77a5.58,5.58,0,0,0,5.58-5.59V349.33A5.58,5.58,0,0,0,204.49,343.75ZM198.9,473.36H160.3V354.91h38.6Z"/><path d="M82.14,400.88H32.37a5.58,5.58,0,0,0-5.59,5.58v72.48a5.59,5.59,0,0,0,5.59,5.59H82.14a5.58,5.58,0,0,0,5.58-5.59V406.46A5.58,5.58,0,0,0,82.14,400.88Zm-5.58,72.48H38V412H76.56Z"/><path d="M326.84,230.88H277.07a5.58,5.58,0,0,0-5.59,5.58V478.94a5.59,5.59,0,0,0,5.59,5.59h49.77a5.58,5.58,0,0,0,5.58-5.59V236.46A5.58,5.58,0,0,0,326.84,230.88Zm-5.59,242.48h-38.6V242h38.6Z"/></svg>